# xmcd
#
# Track frame offsets: 
#        150
#        19484
#        38852
#        62571
#        85923
#        103459
#        119494
#        140293
#        157315
#        181040
#
# Disc length: 2706 seconds
#
# Revision: 0
# Processed by: cddbd v1.5.2PL0 Copyright (c) Steve Scherf et al.
# Submitted via: ExactAudioCopyFreeDBPlugin 1.0
#
DISCID=8c0a900a
DTITLE=Arthur Davenport - Whispering to the Wind
DYEAR=2010
DGENRE=Country
TTITLE0=The Great Mystery
TTITLE1=Who Are We
TTITLE2=Here and Now
TTITLE3=Lonesome Cowboy
TTITLE4=Rearview Mirror
TTITLE5=Make It Up
TTITLE6=Out of Control
TTITLE7=Jewels
TTITLE8=Little By Little
TTITLE9=Three Black Sheep
EXTD=
EXTT0=
EXTT1=
EXTT2=
EXTT3=
EXTT4=
EXTT5=
EXTT6=
EXTT7=
EXTT8=
EXTT9=
PLAYORDER=
